<svg width="18" height="18" xmlns="http://www.w3.org/2000/svg"><g fill="none" fill-rule="evenodd"><path d="M15.5 5a2.5 2.5 0 1 0 0-5 2.5 2.5 0 0 0 0 5zm0 13a2.5 2.5 0 1 0 0-5 2.5 2.5 0 0 0 0 5zm-13 0a2.5 2.5 0 1 0 0-5 2.5 2.5 0 0 0 0 5z" fill="#F88D7D" opacity=".6"/><path d="M2.5 5a2.5 2.5 0 1 0 0-5 2.5 2.5 0 0 0 0 5zM8 1h2a1 1 0 0 1 0 2H8a1 1 0 1 1 0-2zm0 14h2a1 1 0 0 1 0 2H8a1 1 0 0 1 0-2zM2 7a1 1 0 0 1 1 1v2a1 1 0 0 1-2 0V8a1 1 0 0 1 1-1zm14 0a1 1 0 0 1 1 1v2a1 1 0 0 1-2 0V8a1 1 0 0 1 1-1z" fill="#1F2024"/></g></svg>