<svg width="18" height="17" xmlns="http://www.w3.org/2000/svg"><g fill="none" fill-rule="evenodd"><path d="M15.824 0c1.194 0 2.162 1.039 2.162 2.32v6.958l.013 4.137a.5.5 0 0 1-.865.342l-2.013-2.159-3.13-.001.002-.088a6 6 0 0 0-5.776-5.996l-.224-.004h-.836c-.548 0-1.079.073-1.583.211v-3.4c0-1.281.968-2.32 2.162-2.32h10.088z" fill="#1F2024"/><path d="M8.557 7.345c.945 0 1.711.823 1.711 1.837v4.59c0 1.015-.766 1.837-1.711 1.837H1.81l-.93.955a.5.5 0 0 1-.858-.349V14.07A1.981 1.981 0 0 1 0 13.773V9.182c0-1.014.766-1.837 1.711-1.837h6.846zm-.446 4.591H6.46a.46.46 0 1 0 0 .918h1.65a.46.46 0 0 0 0-.918zm0-1.836H3.895a.46.46 0 1 0 0 .918H8.11a.46.46 0 0 0 0-.918z" fill="#F88D7D" opacity=".6"/></g></svg>