<svg width="18" height="18" xmlns="http://www.w3.org/2000/svg"><g fill="none" fill-rule="evenodd"><path d="M6.476 11.524H1.428c-.673-.115-1.01-.452-1.01-1.01 0-.557.337-.894 1.01-1.01h7.067v7.068c0 .673-.336 1.01-1.01 1.01-.673 0-1.01-.337-1.01-1.01v-5.048zm5.048-5.048h5.048c.673.115 1.01.452 1.01 1.01 0 .557-.337.894-1.01 1.01H9.505V1.427c0-.673.336-1.01 1.01-1.01.673 0 1.01.337 1.01 1.01v5.048z" fill="#1F2024" fill-rule="nonzero"/><path d="m.296 16.276 2.855-2.855a1.01 1.01 0 0 1 1.428 1.428l-2.855 2.855a1.01 1.01 0 0 1-1.428-1.428zM13.42 3.151 16.276.296a1.01 1.01 0 1 1 1.428 1.428L14.85 4.579a1.01 1.01 0 0 1-1.428-1.428z" fill="#F88D7D" opacity=".8"/></g></svg>