<svg width="18" height="18" xmlns="http://www.w3.org/2000/svg"><g fill="none" fill-rule="evenodd"><path d="M16 9.937a2 2 0 0 1 2 2v3.55a2 2 0 0 1-2 2H4.722a3.775 3.775 0 1 1 0-7.55H16zM3.79 11.825a1.891 1.891 0 0 0-1.895 1.887A1.89 1.89 0 0 0 3.789 15.6a1.891 1.891 0 0 0 1.895-1.888 1.891 1.891 0 0 0-1.895-1.887z" fill="#F88D7D" opacity=".603"/><path d="m11.954 3.12 2.525 2.515a2 2 0 0 1 .005 2.828l-.005.006-7.956 7.925a3.797 3.797 0 0 1-5.36 0 3.768 3.768 0 0 1 0-5.338l7.968-7.937a2 2 0 0 1 2.823 0zm-8.165 8.705a1.891 1.891 0 0 0-1.894 1.887A1.89 1.89 0 0 0 3.789 15.6a1.891 1.891 0 0 0 1.895-1.888 1.891 1.891 0 0 0-1.895-1.887z" fill="#F88D7D" opacity=".603"/><path d="M5.579.5a2 2 0 0 1 2 2v11.198a3.79 3.79 0 1 1-7.579 0V2.5a2 2 0 0 1 2-2h3.579zm-1.79 11.325a1.891 1.891 0 0 0-1.894 1.887A1.89 1.89 0 0 0 3.789 15.6a1.891 1.891 0 0 0 1.895-1.888 1.891 1.891 0 0 0-1.895-1.887z" fill="#1F2024"/></g></svg>