<svg width="133" height="30" xmlns="http://www.w3.org/2000/svg"><path d="M71.642 17.596V9.213h-4.81v7.982c0 1.917.414 2.546 1.381 2.546.525 0 .967-.171 1.437-.515l.414.487c-1.381 2.403-2.873 3.433-5.028 3.433-2.68 0-4.613-1.688-4.613-5.608V9.213h-1.602V8.24s2.172-.623 3.975-1.769c1.568-.996 2.75-2.497 3.346-2.952l.69.2v4.35h4.837c.277-3.634 2.763-6.638 6.934-6.638 2.68 0 4.227 1.716 4.227 3.204 0 1.23-.912 1.86-2.431 1.945l-.525-.171c-.11-1.803-.58-4.12-1.27-4.12-.47 0-.553.915-.553 2.86v2.92h2.43v1.144h-2.43V24.392c0 3.92-1.934 5.608-4.614 5.608-2.155 0-3.646-1.03-5.027-3.433l.414-.487c.47.344.911.515 1.436.515.968 0 1.382-.63 1.382-2.546v-6.453ZM22.329 21.8v.887a102.197 102.197 0 0 0-9.364 0v-.887l.22-.057c.995-.257.885-.658.885-4.148v-3.262c0-4.492 0-5.121-.857-5.322l-.248-.057v-.887c3.094 0 5.083-.086 7.348-.543l.276.257c-.055 1.288-.11 3.433-.11 4.95.828-3.548 1.989-5.207 4.143-5.207 1.52 0 2.404 1.23 2.404 2.803 0 .859-.221 1.374-.58 1.917l-.47.286c-.94-.286-1.658-.457-2.542-.457-1.187 0-2.403.257-2.955 2.06v3.462c0 3.433.11 3.69 1.353 4.062l.497.143Zm15.063-1.66c-.829 1.86-2.376 3.005-4.558 3.005-2.348 0-4.337-1.402-4.337-5.007v-3.805c0-4.492 0-5.121-.857-5.322l-.248-.057v-.887c3.094 0 5.083-.086 7.348-.543l.276.257c-.083 1.602-.11 4.463-.11 5.98v3.347c0 1.888.497 2.661 1.353 2.661.387 0 .774-.229 1.078-.572v-4.864c0-4.492 0-5.121-.857-5.322l-.248-.057v-.887c3.094 0 5.083-.086 7.348-.543l.276.257c-.083 1.574-.11 4.349-.11 5.837v2.746c0 3.806.055 4.32.635 4.492l.47.143v.887a62.127 62.127 0 0 0-6.962 1.202c-.193-.63-.414-1.66-.497-2.947Zm14.488 2.004c.69 0 1.299-.286 1.299-.973 0-1.43-1.603-2.346-4.282-3.92-1.685-1.001-3.205-2.374-3.205-4.75 0-2.889 2.487-4.977 6.41-4.977 2.099 0 3.563.572 4.834 1.402 0 .772.027 2.431.11 3.662h-.69c-1.133-1.803-3.04-4.092-4.752-4.092-.608 0-.994.344-.994 1.002 0 1.173 1.436 2.117 3.978 3.462 1.878 1.001 3.729 2.517 3.729 5.207 0 3.204-2.625 4.978-6.879 4.978-2.182 0-4.005-.543-5.635-1.23a50.438 50.438 0 0 0 0-4.092h.69c1.603 2.49 3.426 4.32 5.387 4.32Zm29.153-6.752c0-4.893 3.647-7.868 8.177-7.868 4.834 0 7.818 3.261 7.818 7.753 0 4.893-3.619 7.868-8.15 7.868-4.834 0-7.845-3.262-7.845-7.753Zm9.586 3.404c0-4.263-1.077-10.157-2.266-10.157-.58 0-.883 1.145-.883 3.233 0 4.235 1.077 10.157 2.265 10.157.58 0 .884-1.144.884-3.233Zm8.457-1.201V8.24c0-4.492 0-5.121-.857-5.322l-.248-.057v-.887c3.094 0 5.083-.086 7.348-.543l.276.257c-.082 1.574-.11 4.349-.11 5.837v10.07c0 3.52.028 4.006.635 4.12l.47.086v.887a86.577 86.577 0 0 0-8.619 0v-.887l.47-.085c.607-.115.635-.601.635-4.12Zm15.91-14.249c0 1.917-1.436 3.348-3.425 3.348-1.961 0-3.426-1.43-3.426-3.348 0-1.916 1.465-3.347 3.426-3.347s3.425 1.43 3.425 3.347Zm-6.63 14.249v-3.262c0-4.492 0-5.121-.856-5.322l-.249-.057v-.887c3.094 0 5.083-.086 7.349-.543l.276.257c-.083 1.574-.11 4.349-.11 5.837v3.977c0 3.519.027 4.005.635 4.12l.47.085v.887a86.577 86.577 0 0 0-8.62 0v-.887l.47-.085c.608-.115.635-.601.635-4.12Zm8.341-2.203c0-4.893 3.647-7.868 8.178-7.868 4.834 0 7.817 3.261 7.817 7.753 0 4.893-3.619 7.868-8.15 7.868-4.833 0-7.845-3.262-7.845-7.753Zm9.586 3.404c0-4.263-1.077-10.157-2.265-10.157-.58 0-.884 1.145-.884 3.233 0 4.235 1.077 10.157 2.265 10.157.58 0 .884-1.144.884-3.233ZM0 8.44s2.172-.623 3.975-1.768c1.568-.997 2.75-2.497 3.346-2.953l.69.2v4.35h2.99v1.144H8.01v7.982c0 1.917.415 2.547 1.382 2.547.524 0 .966-.172 1.436-.515l.414.486c-1.38 2.403-2.873 3.433-5.027 3.433-2.68 0-4.614-1.688-4.614-5.607V9.413H0V8.44Z" fill="#A9A9A9" fill-rule="nonzero"/></svg>