<svg width="100" height="22" xmlns="http://www.w3.org/2000/svg"><path d="M95.97 7.41c1.32.428 2.278 1.17 2.874 2.223.597 1.054.787 2.344.571 3.868l-7.441-.025c.28.67.805 1.13 1.577 1.38.59.192 1.267.185 2.032-.02l.588 2.63a8.424 8.424 0 0 1-1.82.16 5.818 5.818 0 0 1-1.684-.266c-1.095-.355-1.97-.87-2.628-1.546a4.44 4.44 0 0 1-1.229-2.346c-.16-.889-.083-1.821.234-2.797.294-.905.8-1.663 1.52-2.274a5.342 5.342 0 0 1 2.515-1.188 5.762 5.762 0 0 1 2.891.2zm-.366 2.37c-.378-.29-.833-.435-1.365-.434l-.2.007c-.523.038-.962.224-1.315.559-.398.376-.63.875-.697 1.499l4.415-.008-.028-.207c-.09-.539-.314-.972-.673-1.3zM84.31 17.376h3.067V0H84.31v17.375zM32.302 0v17.375h3.066v-.969c.847.823 1.92 1.234 3.22 1.234a4.91 4.91 0 0 0 2.475-.65 4.8 4.8 0 0 0 1.819-1.85c.452-.8.679-1.729.679-2.786s-.205-1.967-.614-2.73c-.409-.764-.96-1.347-1.654-1.751a4.468 4.468 0 0 0-2.289-.606c-.774 0-1.474.107-2.102.32-.628.212-1.147.488-1.556.825V0h-3.044zm3.066 13.588V11.23c.19-.47.511-.844.964-1.123.453-.279.979-.418 1.577-.418.701 0 1.3.25 1.796.748.497.5.745 1.13.745 1.894 0 .5-.117.958-.35 1.377a2.607 2.607 0 0 1-.931.98 2.383 2.383 0 0 1-1.26.352c-1.168 0-2.015-.484-2.54-1.453zm38.635-5.66c-.716.44-1.29 1.06-1.72 1.86-.43.8-.646 1.73-.646 2.787 0 1.673.442 2.936 1.325 3.787.884.852 2.034 1.278 3.45 1.278 1.212 0 2.278-.485 3.198-1.454v1.19h3.067V7.751h-3.004l-.041.99a4.119 4.119 0 0 0-1.314-1.09c-.497-.256-1.168-.385-2.015-.385a4.31 4.31 0 0 0-2.3.661zm2.026 6.849a2.607 2.607 0 0 1-.931-.98 2.775 2.775 0 0 1-.35-1.377c0-.763.237-1.394.711-1.894.475-.499 1.048-.748 1.72-.748.584 0 1.091.14 1.522.418.43.28.734.654.91 1.123v2.357c-.483.969-1.257 1.453-2.323 1.453-.452 0-.872-.117-1.26-.352zM21.866 7.969c-.716.44-1.29 1.06-1.72 1.86-.43.8-.646 1.73-.646 2.787 0 1.673.442 2.936 1.325 3.787.884.852 2.033 1.278 3.45 1.278 1.212 0 2.278-.485 3.198-1.454v1.19h3.067V7.792h-3.004l-.041.99a4.12 4.12 0 0 0-1.314-1.09c-.497-.256-1.169-.385-2.015-.385-.818 0-1.585.22-2.3.66zm1.947 6.849a2.607 2.607 0 0 1-.93-.98 2.775 2.775 0 0 1-.35-1.377c0-.763.236-1.394.71-1.894.476-.499 1.049-.748 1.72-.748.584 0 1.092.14 1.523.418.43.279.734.653.909 1.123v2.357c-.482.968-1.256 1.453-2.322 1.453-.453 0-.873-.117-1.26-.352zm41.309-7.033c-.57.315-.99.72-1.26 1.211-.27.492-.405.995-.405 1.509 0 .675.204 1.273.613 1.794.409.522 1.03.914 1.862 1.178.117.03.347.096.69.199.343.102.654.231.931.385s.416.378.416.672c0 .25-.12.437-.361.561-.241.125-.559.187-.953.187-.745 0-1.54-.396-2.388-1.189l-1.27 1.696c.453.5 1.022.888 1.708 1.167a5.819 5.819 0 0 0 2.213.419c.89 0 1.646-.158 2.267-.474.62-.316 1.084-.73 1.39-1.244.307-.514.46-1.08.46-1.696 0-1.321-.751-2.231-2.255-2.73l-.296-.089a12.3 12.3 0 0 1-.274-.088c-.57-.161-.99-.319-1.26-.473a.707.707 0 0 1-.383-.694c0-.205.11-.382.329-.528.219-.147.504-.22.854-.22.292 0 .617.076.975.23.358.155.683.35.975.584l1.16-1.806a5.251 5.251 0 0 0-1.598-.792c-.555-.162-1.227-.243-2.016-.243-.847 0-1.555.158-2.124.474zm-8.575 0c-.57.315-.989.72-1.26 1.211a3.1 3.1 0 0 0-.404 1.509c0 .675.204 1.273.613 1.794.409.522 1.03.914 1.862 1.178.117.03.347.096.69.199.343.102.653.231.93.385.278.154.417.378.417.672 0 .25-.12.437-.362.561-.24.125-.558.187-.952.187-.745 0-1.54-.396-2.388-1.189l-1.27 1.696c.452.5 1.022.888 1.708 1.167a5.819 5.819 0 0 0 2.212.419c.891 0 1.647-.158 2.268-.474.62-.316 1.084-.73 1.39-1.244.307-.514.46-1.08.46-1.696 0-1.321-.752-2.231-2.256-2.73l-.295-.089c-.095-.03-.187-.058-.274-.088-.57-.161-.99-.319-1.26-.473a.707.707 0 0 1-.383-.694c0-.205.11-.382.329-.528.219-.147.503-.22.854-.22.292 0 .617.076.975.23.357.155.682.35.974.584l1.161-1.806a5.252 5.252 0 0 0-1.599-.792c-.555-.162-1.226-.243-2.015-.243-.847 0-1.555.158-2.125.474zm-4.653-.033-2.541 5.681-2.519-5.681h-3.439l4.425 9.117L45.52 22h2.957l6.177-14.248h-2.76zm-40.105-.121.157.007c.414.036.79.214 1.07.511.273.289.439.674.476 1.1l.008.185v5.88c0 .523-.187 1.07-.527 1.54a2.785 2.785 0 0 1-1.09.906l-.18.072-5.723 2.025a2.03 2.03 0 0 1-.679.12 1.668 1.668 0 0 1-1.511-.926l5.51-1.907.182-.07c1.26-.52 2.205-1.82 2.289-3.147l.006-.19-.002-6.105h.014zM8.187 5.5c1.146 0 2.01.892 2.01 2.075l-.001.499.01-.003v5.667l-.007.147c-.068.692-.6 1.412-1.265 1.71l-.145.057-5.199 1.8v-.023l-.81.283a2.39 2.39 0 0 1-.578.126l-.192.008c-1.146 0-2.01-.892-2.01-2.074v-5.514c0-1.163.846-2.335 1.968-2.725l5.449-1.899a2.34 2.34 0 0 1 .77-.134zm0 1.262c-.114 0-.237.021-.364.066l-5.45 1.898c-.619.216-1.126.905-1.126 1.532v5.514c0 .498.32.812.763.812.114 0 .237-.02.364-.065l1.216-.425v-3.799c0-.457.144-.933.408-1.36l.12-.18a2.78 2.78 0 0 1 1.089-.906l.18-.072L8.95 8.515v-.94c0-.457-.268-.76-.654-.806z" fill="#FFF" fill-rule="evenodd"/></svg>