<svg width="172" height="22" xmlns="http://www.w3.org/2000/svg"><path d="M0 0h8.494c4.238 0 6.877 2.387 6.877 5.483a5.084 5.084 0 0 1-2.64 4.582 5.494 5.494 0 0 1 3.885 5.271c0 3.811-2.943 6.351-7.747 6.351H0V0Zm8.586 8.89c2.014 0 3.162-.862 3.162-2.755 0-1.892-1.148-2.728-3.162-2.728H3.623v5.484h4.963Zm.909 9.39c1.983 0 3.347-.993 3.347-2.976S11.467 12.3 9.495 12.3H3.63v5.98h5.865Zm8.632-4.338c0-5.205 3.407-8.055 7.373-8.055 1.942 0 3.593.923 4.771 2.009l1.215-1.7h2.316v15.491h-3.544v-1.916c-.992 1.053-2.542 2.227-4.864 2.227-3.625 0-7.28-2.85-7.28-8.056h.013Zm12.144 1.146v-2.261c0-2.232-1.89-3.904-4.184-3.904-2.415 0-4.398 1.61-4.398 5.02 0 3.409 1.97 5.019 4.422 5.019 2.257 0 4.147-1.643 4.147-3.874h.013Zm36.573-8.893h-4.338l-6.34 7.184V0h-3.532v21.687h3.532V14.51l6.34 7.177h4.338l-6.88-7.745 6.88-7.747Zm8.873 0H71.38l-6.858 7.747 6.862 7.745h4.337l-6.883-7.745 6.88-7.747ZM96.027 0l-6.44 13.83L83.13 0h-3.885v21.687h3.524V7.028l5.18 11.19h3.284l5.179-11.19v14.66h3.5V0h-3.885Zm6.053 13.942c0-5.205 3.408-8.055 7.374-8.055 1.942 0 3.593.923 4.771 2.009l1.224-1.7h2.317v15.491h-3.536v-1.916c-.991 1.053-2.54 2.227-4.864 2.227-3.628 0-7.281-2.85-7.281-8.056h-.005Zm12.145 1.146v-2.261c0-2.232-1.89-3.904-4.182-3.904-2.417 0-4.4 1.61-4.4 5.02 0 3.409 1.983 5.019 4.43 5.019 2.266 0 4.157-1.643 4.157-3.874h-.005Zm6.036-8.893h2.309l1.217 1.7c1.053-1.208 2.085-1.941 3.655-1.941h2.616V9.31H126.1c-1.46 0-2.307.687-2.307 2.333v10.034h-3.532V6.195Zm44.315 11.5V9.232h-2.88V6.195h2.88V3.198l3.563-2.065v5.062h3.47v3.037h-3.47v7.906c0 1.02.589 1.487 1.765 1.487h1.55v3.062h-2.603c-2.54 0-4.275-1.085-4.275-3.992Zm-7.223-1.278c-.584 1.559-1.87 2.59-4.003 2.59-2.479 0-4.214-1.55-4.367-4.1h11.868V13.81c0-4.987-3.159-7.93-7.552-7.93-4.12 0-7.745 3.221-7.745 8.055s3.099 8.055 7.745 8.055c3.608 0 6.085-1.756 7.164-4.933-.93-.19-1.992-.412-3.11-.645v.004Zm-4.065-7.65c2.231 0 3.996 1.272 4.214 3.563h-8.459c.434-2.261 2.139-3.562 4.245-3.562Zm-7.197-2.572h-4.337l-6.347 7.158V0h-3.532v21.687h3.532v-7.156l6.34 7.156h4.344l-6.886-7.745 6.886-7.747ZM43.633 18.867c-2.572 0-4.493-1.765-4.493-4.925 0-3.159 1.92-4.926 4.493-4.926 2.22 0 3.647 1.105 4.148 2.825.807-.162 2.451-.492 3.144-.648C50.155 7.87 47.45 5.89 43.6 5.89c-4.46 0-7.93 3.252-7.93 8.055 0 4.804 3.47 8.056 7.93 8.056 3.768 0 6.413-1.905 7.307-5.31-.706-.158-2.338-.486-3.136-.648-.574 1.774-1.914 2.825-4.139 2.825Z" fill="#A9A9A9" fill-rule="nonzero"/></svg>