<svg width="128" height="22" xmlns="http://www.w3.org/2000/svg"><path d="M41 .54V21h4V0l-4 .54ZM56.66 4a7.68 7.68 0 0 0-2.85.55 7.36 7.36 0 0 0-2.44 1.63 7.86 7.86 0 0 0-1.71 2.69 10.15 10.15 0 0 0-.66 3.77 10.47 10.47 0 0 0 .5 3.36 6.86 6.86 0 0 0 1.55 2.64 7.06 7.06 0 0 0 2.65 1.75c1.207.453 2.49.67 3.78.64.578.005 1.156-.025 1.73-.09.57-.07 1.12-.14 1.62-.23s1-.21 1.37-.32c.37-.11.59-.21.82-.3l-.55-3.36c-.585.213-1.187.377-1.8.49a13.59 13.59 0 0 1-2.55.23 5.63 5.63 0 0 1-3.33-.9 3.37 3.37 0 0 1-1.44-2.46v-.25h10.6V12.3c0-2.71-.66-4.8-2-6.2A7.18 7.18 0 0 0 56.66 4ZM60 11.05h-6.69v-.25a7.25 7.25 0 0 1 .3-1.22 3.23 3.23 0 0 1 .62-1.1c.276-.321.617-.58 1-.76.454-.2.944-.302 1.44-.3.5-.007.994.095 1.45.3a3 3 0 0 1 1.55 1.86 5 5 0 0 1 .21 1.22l.12.25Zm14.85-.3c-.873.002-1.743.085-2.6.25a7.73 7.73 0 0 0-2.18.84 4.26 4.26 0 0 0-1.51 1.53 4.72 4.72 0 0 0-.56 2.37 5.65 5.65 0 0 0 .49 2.48 4.06 4.06 0 0 0 1.39 1.6 6.15 6.15 0 0 0 2.21.9A13.53 13.53 0 0 0 75 21c1.46.022 2.918-.078 4.36-.3A3.05 3.05 0 0 0 82 17.52v-6.93a10.16 10.16 0 0 0-.35-2.76 4.82 4.82 0 0 0-1.14-2.07 5.33 5.33 0 0 0-2.16-1.3A11.071 11.071 0 0 0 74.92 4c-.54 0-1.09 0-1.63.07-.54.07-1 .12-1.53.19s-.93.16-1.35.25l-.83.21.53 3.34c.595-.173 1.2-.314 1.81-.42.802-.115 1.61-.175 2.42-.18.97-.1 1.941.18 2.71.78a2.82 2.82 0 0 1 .79 2.11v.75l-.3-.1a7.268 7.268 0 0 0-1.11-.2c-.43-.03-.98-.05-1.58-.05Zm.44 7.1a4.38 4.38 0 0 1-2.16-.47 1.8 1.8 0 0 1-.86-1.74 1.88 1.88 0 0 1 .3-1.09 2.07 2.07 0 0 1 .79-.67 3.25 3.25 0 0 1 1.12-.32 10.1 10.1 0 0 1 1.3-.1c.358.005.715.029 1.07.07.296.03.59.077.88.14l.18.05v4h-.18c-.332.046-.665.076-1 .09-.479.04-.96.054-1.44.04Zm17.9-12.18a8.41 8.41 0 0 0-3.07.52 5.999 5.999 0 0 0-2.23 1.53 7 7 0 0 0-1.41 2.45 10.26 10.26 0 0 0-.48 3.24 8.08 8.08 0 0 0 .58 3.18A6.21 6.21 0 0 0 88.21 19a7.23 7.23 0 0 0 2.63 1.51c1.161.365 2.373.54 3.59.52.56 0 1.16 0 1.78-.06.62-.06 1.22-.11 1.82-.19a3.27 3.27 0 0 0 3-3.28V0l-4.29.54v5.88l-.33-.12a11.656 11.656 0 0 0-1.52-.49c-.562-.093-1.13-.14-1.7-.14ZM93.84 18A3.39 3.39 0 0 1 91 16.69a5.43 5.43 0 0 1-1-3.33C90 10.453 91.117 9 93.35 9a5.14 5.14 0 0 1 1.4.19c.4.1.783.255 1.14.46l.11.07v8.11h-.17c-.22.05-.5.07-.84.11l-1.15.06Zm18.77-18A47.71 47.71 0 0 1 128 10.57s-7.39 8.11-15.39 10.43a32.77 32.77 0 0 1-.61-4 6.57 6.57 0 0 0 6.22-6.62 6.55 6.55 0 0 0-6.13-6.6c.12-1.22.31-2.49.52-3.78Zm-1.11 5a5.5 5.5 0 1 1 0 11 5.5 5.5 0 0 1 0-11ZM6.09 21c-.85 0-1.85 0-3-.11a22.326 22.326 0 0 1-3-.38H0V6.42l4.15-.69v11.74h.29c.22 0 .49.05.8.05h1.07c2.46 0 4.33-.64 5.54-1.89a7.17 7.17 0 0 0 1.8-5.17 7.25 7.25 0 0 0-1.74-5.24c-1.16-1.2-3-1.8-5.46-1.8h-1c-.33 0-.69 0-1 .06-1.437.13-2.865.338-4.28.62L0 4.2V.55h.12a29.487 29.487 0 0 1 3-.42C4.37 0 5.4 0 6.25 0c1.64-.018 3.274.183 4.86.6a10.08 10.08 0 0 1 3.7 1.86 8.4 8.4 0 0 1 2.36 3.22 12.28 12.28 0 0 1 .83 4.8 12.27 12.27 0 0 1-.83 4.66 8.56 8.56 0 0 1-2.34 3.26 10.229 10.229 0 0 1-3.72 2 18.79 18.79 0 0 1-5.02.6ZM30 21a8.36 8.36 0 0 1-3.27-.61 7.23 7.23 0 0 1-2.51-1.73A7.88 7.88 0 0 1 22.6 16a10 10 0 0 1-.6-3.5 9.94 9.94 0 0 1 .6-3.5 7.56 7.56 0 0 1 4.21-4.37A8.179 8.179 0 0 1 30 4a8.4 8.4 0 0 1 3.25.61 7.46 7.46 0 0 1 2.51 1.71A7.84 7.84 0 0 1 37.4 9a9.94 9.94 0 0 1 .6 3.49 10.53 10.53 0 0 1-.55 3.5 7.54 7.54 0 0 1-1.61 2.69 7.66 7.66 0 0 1-2.51 1.73A8.61 8.61 0 0 1 30 21Zm0-13.56a3.31 3.31 0 0 0-2.8 1.38 6.17 6.17 0 0 0-1 3.65 6.27 6.27 0 0 0 1 3.66 3.48 3.48 0 0 0 5.62 0 6.42 6.42 0 0 0 .94-3.66 6.32 6.32 0 0 0-.94-3.65A3.28 3.28 0 0 0 30 7.44Z" fill="#A9A9A9	" fill-rule="evenodd"/></svg>