<svg width="216" height="25" xmlns="http://www.w3.org/2000/svg"><path d="M62.557 7.106V18.12h2.746a5.242 5.242 0 0 0 3.735-1.644 5.516 5.516 0 0 0 1.505-3.872 5.422 5.422 0 0 0-1.484-3.89 5.15 5.15 0 0 0-3.756-1.61h-2.745l-.001.002Zm2.746-3.454c5.118 0 8.99 3.966 8.99 8.952 0 4.985-3.872 8.973-8.99 8.973h-6.057a.44.44 0 0 1-.434-.445V4.116a.44.44 0 0 1 .434-.447l6.057-.017Zm22.183 14.852c2.325.007 4.424-1.423 5.32-3.623a6 6 0 0 0-1.23-6.424 5.64 5.64 0 0 0-6.26-1.291c-2.148.907-3.552 3.054-3.556 5.438 0 3.249 2.56 5.884 5.728 5.9m0-15.258c5.387 0 9.506 4.246 9.506 9.358 0 5.111-4.119 9.357-9.508 9.357-5.387 0-9.47-4.225-9.47-9.357 0-5.133 4.118-9.358 9.47-9.358m22.594 15.258c3.17-.009 5.734-2.647 5.73-5.896-.003-3.252-2.573-5.885-5.74-5.886-3.171 0-5.742 2.631-5.747 5.882 0 1.565.607 3.067 1.686 4.173a5.68 5.68 0 0 0 4.07 1.727m0-15.258c5.37 0 9.49 4.225 9.49 9.358 0 5.132-4.136 9.357-9.49 9.357-5.352 0-9.506-4.225-9.506-9.357 0-5.133 4.119-9.358 9.506-9.358m22.05 3.86h-3.871v4.74h3.872a2.24 2.24 0 0 0 1.663-.634 2.35 2.35 0 0 0 .709-1.67 2.385 2.385 0 0 0-.672-1.744 2.263 2.263 0 0 0-1.7-.688v-.004Zm-7.617-2.99c0-.247.196-.447.435-.447h7.29c3.476 0 5.991 2.612 5.991 5.892.027 2.218-1.184 4.255-3.118 5.248l3.362 6.096a.455.455 0 0 1 .017.476.431.431 0 0 1-.412.219h-2.95a.434.434 0 0 1-.395-.241l-3.24-6.033h-3.248v5.792a.44.44 0 0 1-.435.447h-2.842a.44.44 0 0 1-.434-.447l-.02-17-.001-.002Zm23.48 3.074v11.015h2.745a5.242 5.242 0 0 0 3.736-1.638 5.515 5.515 0 0 0 1.508-3.87 5.422 5.422 0 0 0-1.48-3.895 5.15 5.15 0 0 0-3.763-1.61l-2.746-.002Zm2.745-3.458c5.118 0 8.99 3.97 8.99 8.966 0 4.995-3.872 8.965-8.99 8.965h-6.039a.44.44 0 0 1-.434-.447V4.201c0-.248.195-.448.434-.448l6.04-.02h-.001Zm20.412 4.38-2.124 5.89h4.244l-2.12-5.89Zm-3.37 9.22-1.391 3.92a.434.434 0 0 1-.435.309h-3.016a.43.43 0 0 1-.396-.188.455.455 0 0 1-.038-.445l6.517-17a.434.434 0 0 1 .434-.294h3.375a.434.434 0 0 1 .436.294l6.517 17a.455.455 0 0 1-.039.445.43.43 0 0 1-.396.186h-3.015a.434.434 0 0 1-.434-.308l-1.39-3.921h-6.73v.001Zm15.5-8.837c0-2.815 2.372-5.249 6.118-5.249a7.642 7.642 0 0 1 5.434 2.1.45.45 0 0 1 0 .655l-1.67 1.701a.429.429 0 0 1-.617 0 4.337 4.337 0 0 0-2.899-1.172c-1.498 0-2.606.892-2.606 1.922 0 3.327 8.855 1.407 8.855 7.81-.004 3.244-2.395 5.7-6.621 5.7a8.752 8.752 0 0 1-6.317-2.603.45.45 0 0 1 0-.655l1.616-1.658a.43.43 0 0 1 .63 0 5.51 5.51 0 0 0 3.819 1.596c1.872 0 3.106-1.025 3.106-2.31 0-3.328-8.85-1.406-8.85-7.81m28.674-4.429v6.728h-7.495V4.093a.44.44 0 0 0-.434-.445h-2.843a.44.44 0 0 0-.434.445V21.09c0 .247.196.447.434.447h2.843c.238 0 .434-.2.434-.447v-6.834h7.49v6.834c0 .247.195.447.433.447h2.843c.24 0 .434-.2.434-.447V4.093a.44.44 0 0 0-.434-.445h-2.843a.44.44 0 0 0-.428.445ZM42.854 5.917C40.883 2.262 37.024-.013 32.83 0H1.085A1.092 1.092 0 0 0 .082.67c-.167.401-.074.864.235 1.17l6.916 6.862c.61.608 1.442.948 2.307.948H31.92c1.595-.017 2.899 1.247 2.915 2.82.017 1.572-1.261 2.86-2.856 2.876H16.549c-.438 0-.834.262-1.005.666-.169.402-.076.867.234 1.174l6.92 6.867a3.277 3.277 0 0 0 2.307.947h6.978c9.079 0 15.944-9.579 10.871-19.087" fill="#A9A9A9" fill-rule="nonzero"/></svg>