<svg width="20" height="20" fill="none" xmlns="http://www.w3.org/2000/svg"><path fill-rule="evenodd" clip-rule="evenodd" d="M14.974 5.084C13.66 3.772 11.886 3 10.034 3c-1.854 0-3.63.772-4.941 2.084-1.313 1.313-2.085 3.088-2.085 4.94 0 1.854.695 3.629 2.085 4.941 1.312 1.313 3.087 2.085 4.94 2.085 1.853 0 3.628-.695 4.94-2.085 2.702-2.701 2.702-7.179 0-9.88Zm-.618 8.029-2.007-1.93c.85-.618 1.93-1.004 3.01-1.004-.076 1.004-.385 2.085-1.003 2.934Zm-1.158 1.235-2.007-2.007c-.618.849-1.004 1.93-1.004 3.01 1.081 0 2.162-.386 3.011-1.003Zm1.93-5.867a7.016 7.016 0 0 0-3.937 1.467l-1.08-1.081c.926-1.158 1.389-2.548 1.466-3.937.85.231 1.621.695 2.239 1.312.617.695 1.08 1.467 1.312 2.239Zm-7.41.463L5.71 6.937c-.617.85-.926 1.853-1.003 3.01 1.08 0 2.161-.385 3.01-1.003Zm-.773-3.242c.85-.618 1.93-1.004 3.011-1.004 0 1.081-.386 2.085-1.004 3.01L6.945 5.703Zm1.93 4.4a7.016 7.016 0 0 1-3.937 1.467c.232.849.695 1.62 1.312 2.238a5.071 5.071 0 0 0 2.24 1.313c.076-1.39.54-2.78 1.466-3.937l-1.08-1.081Z" fill="#fff"/></svg>