<svg width="20" height="20" fill="none" xmlns="http://www.w3.org/2000/svg"><path d="M8.05 16c5.503-.15 8.442-4.65 8.442-8.625V7c.604-.45 1.131-.975 1.508-1.575a6.545 6.545 0 0 1-1.734.45c.603-.375 1.131-.975 1.357-1.65-.603.375-1.281.6-1.96.75-.527-.6-1.357-.975-2.261-.975-1.658 0-3.09 1.35-3.09 3 0 .225 0 .45.075.675-2.563-.15-4.824-1.35-6.332-3.15-.226.45-.452.975-.452 1.5 0 1.05.528 1.95 1.357 2.55-.528 0-.98-.15-1.357-.375v.075c0 1.5 1.055 2.7 2.487 3-.226.075-.527.075-.829.075-.226 0-.377 0-.603-.075a3.007 3.007 0 0 0 2.865 2.1c-1.056.825-2.337 1.275-3.77 1.275-.225 0-.451 0-.753-.075 1.281.825 2.864 1.35 4.523 1.35h.527" fill="#fff"/></svg>